# xmcd
# Track frame offsets:
# 150
# 18384
# 42076
# 61610
# 75873
# 97052
# 120870
# 151618
# 167246
# 188365
# 202089
# 223536
# 249535
#
# Disc length: 3685 seconds
# Revision: 0
# Processed by: cddbd v1.5.2PL0 Copyright (c) Steve Scherf et al.
# Submitted via: VisiTrax 2.10.0.248 - For more info visit www.synapsa.com
#
DISCID=940e630d
DTITLE=Lee, Frankie - Standing At The Crossroads
DYEAR=2006
DGENRE=Blues
TTITLE0=Wish I Had A Dime
TTITLE1=High Horse
TTITLE2=I Need Lots Of Love
TTITLE3=Prayer For Peace
TTITLE4=Where You Been All My Life
TTITLE5=Better Than That
TTITLE6=Let's Think Twice
TTITLE7=Mary Don't You Weep
TTITLE8=Standing At The Crossroads
TTITLE9=How Far Can You Fall
TTITLE10=Think What It's Doing To Me
TTITLE11=I Really Got The Blues
TTITLE12=I Ain't Ever Had The Blues (like this before)
EXTD=
EXTT0=
EXTT1=
EXTT2=
EXTT3=
EXTT4=
EXTT5=
EXTT6=
EXTT7=
EXTT8=
EXTT9=
EXTT10=
EXTT11=
EXTT12=
PLAYORDER=
